<svg id="Laag_1" data-name="Laag 1" xmlns="http://www.w3.org/2000/svg" viewBox="0 0 224.42 213.48"><defs><style>.cls-1{fill:#50bdc6;}.cls-2{fill:#b57cb4;}.cls-3{fill:#f7aa61;}</style></defs><title>logo</title><path class="cls-1" d="M157,16.92a49.43,49.43,0,0,0-41.88,23l-3,4.65-2.95-4.65A49.61,49.61,0,1,0,28.09,96.81l4.09,4.67,80,91.45,84.12-96.12a49.13,49.13,0,0,0,10.31-30.29A49.66,49.66,0,0,0,157,16.92Z"/><path class="cls-2" d="M112.21,203.56,22.63,101.18A56,56,0,0,1,10.78,66.52,56.6,56.6,0,0,1,112.21,32a56.6,56.6,0,1,1,89.58,69.22l-.13.16-4.16,4.75ZM28.09,96.81l4.09,4.67,80,91.45,84.12-96.12a49.13,49.13,0,0,0,10.31-30.29,49.61,49.61,0,0,0-91.48-26.59l-3,4.65-2.95-4.65A49.61,49.61,0,1,0,28.09,96.81Z"/><path class="cls-3" d="M188.59,71.7l-6.53-2.53a26.43,26.43,0,0,0-34.42-34.08l-2.59-6.51A33.44,33.44,0,0,1,188.59,71.7Z"/></svg>